<svg width="146" height="105" viewBox="0 0 146 105" fill="none" xmlns="http://www.w3.org/2000/svg">
<path opacity="0.2" d="M104 104H0V39.65L52 0L104 39.65V104Z" fill="#123155"/>
<path d="M50.7663 78.8H45.0063V92.192H44.8623L36.4023 78.8H31.0383V104H36.7983V90.176H36.9423L45.5103 104H50.7663V78.8Z" fill="#123155"/>
<path d="M60.4509 91.004C61.3149 89.888 62.6109 89.168 63.8709 89.168C64.8069 89.168 65.3829 89.384 65.9229 89.636L67.0029 84.344C66.2829 83.984 65.4909 83.696 64.4109 83.696C62.6109 83.696 60.8469 84.848 59.8749 86.468L59.4429 83.984H54.6909V104H60.4509V91.004Z" fill="#123155"/>
<path d="M67.4793 104H73.9593V97.484H67.4793V104Z" fill="#123155"/>
<path d="M85.2448 82.256C86.9368 86.432 87.0808 86.756 87.0808 86.756L92.3728 84.74V98.996H86.6128V104H102.525V98.996H98.2768V78.8H94.1728L85.2448 82.256Z" fill="#123155"/>
<path d="M114.415 83.912C116.719 83.912 117.367 85.676 117.367 88.34V94.46C117.367 97.088 116.719 98.888 114.415 98.888C112.111 98.888 111.463 97.088 111.463 94.46V88.34C111.463 85.676 112.111 83.912 114.415 83.912ZM114.415 104.288C120.607 104.288 123.307 100.148 123.307 94.784V88.016C123.307 82.652 120.607 78.512 114.415 78.512C108.223 78.512 105.523 82.652 105.523 88.016V94.784C105.523 100.148 108.223 104.288 114.415 104.288Z" fill="#123155"/>
<path d="M142.809 88.484H137.121V94.46H132.621L139.209 78.8H133.269L126.285 95.648V99.464H137.121V104H142.809V99.464H145.797V94.46H142.809V88.484Z" fill="#123155"/>
</svg>
