<svg width="146" height="104" viewBox="0 0 146 104" fill="none" xmlns="http://www.w3.org/2000/svg">
<path opacity="0.2" d="M104 104H0V39.65L52 0L104 39.65V104Z" fill="#123155"/>
<path d="M54.5633 78.8H48.8033V92.192H48.6593L40.1993 78.8H34.8353V104H40.5953V90.176H40.7393L49.3073 104H54.5633V78.8Z" fill="#123155"/>
<path d="M64.2478 91.004C65.1118 89.888 66.4078 89.168 67.6678 89.168C68.6038 89.168 69.1798 89.384 69.7198 89.636L70.7998 84.344C70.0798 83.984 69.2878 83.696 68.2078 83.696C66.4078 83.696 64.6438 84.848 63.6718 86.468L63.2398 83.984H58.4878V104H64.2478V91.004Z" fill="#123155"/>
<path d="M71.2763 104H77.7563V97.484H71.2763V104Z" fill="#123155"/>
<path d="M89.0417 82.256C90.7337 86.432 90.8777 86.756 90.8777 86.756L96.1697 84.74V98.996H90.4097V104H106.322V98.996H102.074V78.8H97.9697L89.0417 82.256Z" fill="#123155"/>
<path d="M108.8 82.256C110.492 86.432 110.636 86.756 110.636 86.756L115.928 84.74V98.996H110.168V104H126.08V98.996H121.832V78.8H117.728L108.8 82.256Z" fill="#123155"/>
<path d="M128.557 82.256C130.249 86.432 130.393 86.756 130.393 86.756L135.685 84.74V98.996H129.925V104H145.837V98.996H141.589V78.8H137.485L128.557 82.256Z" fill="#123155"/>
</svg>
