<svg width="22" height="22" viewBox="0 0 22 22" fill="none" xmlns="http://www.w3.org/2000/svg">
<path d="M21.7315 10.3519L18.8586 7.47907C18.8373 7.45778 18.8204 7.43248 18.809 7.40464C18.7975 7.37679 18.7916 7.34694 18.7917 7.31682V1.83332C18.7917 1.59021 18.6951 1.35705 18.5232 1.18514C18.3513 1.01323 18.1182 0.916654 17.875 0.916654H15.125C14.8819 0.916654 14.6488 1.01323 14.4769 1.18514C14.305 1.35705 14.2084 1.59021 14.2084 1.83332V2.27515C14.2085 2.32054 14.1951 2.36493 14.1699 2.40269C14.1447 2.44045 14.1089 2.46988 14.067 2.48726C14.025 2.50464 13.9789 2.50918 13.9344 2.50031C13.8899 2.49143 13.849 2.46954 13.817 2.4374L11.6481 0.268571C11.4762 0.0967222 11.2431 0.000183105 11 0.000183105C10.757 0.000183105 10.5239 0.0967222 10.352 0.268571L0.268632 10.3519C0.140474 10.4801 0.0532009 10.6434 0.0178473 10.8212C-0.0175062 10.999 0.000646471 11.1833 0.0700107 11.3508C0.139375 11.5182 0.256836 11.6614 0.407545 11.7621C0.558254 11.8628 0.735444 11.9166 0.916715 11.9167H2.06255C2.12333 11.9167 2.18162 11.9408 2.22459 11.9838C2.26757 12.0268 2.29172 12.085 2.29172 12.1458V21.0833C2.29172 21.3264 2.38829 21.5596 2.5602 21.7315C2.73211 21.9034 2.96527 22 3.20838 22H8.47922C8.53999 22 8.59828 21.9758 8.64126 21.9329C8.68424 21.8899 8.70838 21.8316 8.70838 21.7708V17.4167C8.70838 16.8089 8.94983 16.226 9.3796 15.7962C9.80937 15.3664 10.3923 15.125 11 15.125C11.6078 15.125 12.1907 15.3664 12.6205 15.7962C13.0503 16.226 13.2917 16.8089 13.2917 17.4167V21.7708C13.2917 21.8316 13.3159 21.8899 13.3588 21.9329C13.4018 21.9758 13.4601 22 13.5209 22H18.7917C19.0348 22 19.268 21.9034 19.4399 21.7315C19.6118 21.5596 19.7084 21.3264 19.7084 21.0833V12.1458C19.7084 12.085 19.7325 12.0268 19.7755 11.9838C19.8185 11.9408 19.8768 11.9167 19.9375 11.9167H21.0834C21.2647 11.9166 21.4418 11.8628 21.5926 11.7621C21.7433 11.6614 21.8607 11.5182 21.9301 11.3508C21.9995 11.1833 22.0176 10.999 21.9823 10.8212C21.9469 10.6434 21.8596 10.4801 21.7315 10.3519Z" fill="#CFCDB0"/>
</svg>
