<svg width="22" height="22" viewBox="0 0 22 22" fill="none" xmlns="http://www.w3.org/2000/svg">
<g clip-path="url(#clip0)">
<path d="M19.8358 5.95835C19.8213 4.44556 19.232 2.99491 18.1873 1.90069C17.1426 0.806468 15.7207 0.150614 14.2102 0.0661791C12.6997 -0.0182557 11.2137 0.475052 10.0535 1.44603C8.8934 2.417 8.14604 3.79293 7.96309 5.29468C7.95337 5.38384 7.9177 5.46819 7.86051 5.53727C7.80332 5.60636 7.72712 5.65715 7.64134 5.68335C6.79435 5.93893 6.05197 6.46005 5.52379 7.1698C4.99561 7.87955 4.70961 8.7403 4.70801 9.62501V10.0833C4.70801 10.3265 4.80458 10.5596 4.97649 10.7315C5.1484 10.9034 5.38156 11 5.62467 11H12.0413C12.2845 11 12.5176 10.9034 12.6895 10.7315C12.8614 10.5596 12.958 10.3265 12.958 10.0833V9.62501C12.9558 8.76224 12.683 7.92189 12.1782 7.22221C11.6734 6.52254 10.9619 5.99877 10.1438 5.7246C10.0393 5.68956 9.95085 5.618 9.89478 5.52304C9.83871 5.42807 9.81876 5.31608 9.83859 5.2076C10.0265 4.19966 10.584 3.29821 11.4018 2.67986C12.2197 2.06152 13.2389 1.77085 14.2599 1.8648C15.2809 1.95875 16.23 2.43056 16.9213 3.18778C17.6125 3.945 17.9961 4.93305 17.9969 5.95835V21.0833C17.9969 21.3265 18.0935 21.5596 18.2654 21.7315C18.4373 21.9034 18.6705 22 18.9136 22C19.1567 22 19.3899 21.9034 19.5618 21.7315C19.7337 21.5596 19.8303 21.3265 19.8303 21.0833L19.8358 5.95835Z" fill="#CFCDB0"/>
<path d="M8.45894 18.5313C7.97845 19.1487 7.63784 19.863 7.46069 20.625C7.46069 20.9897 7.60556 21.3394 7.86342 21.5973C8.12128 21.8551 8.47102 22 8.83569 22C9.20037 22 9.5501 21.8551 9.80797 21.5973C10.0658 21.3394 10.2107 20.9897 10.2107 20.625C10.0335 19.863 9.69294 19.1487 9.21244 18.5313C9.16811 18.4735 9.11107 18.4267 9.04574 18.3945C8.98041 18.3623 8.90854 18.3455 8.83569 18.3455C8.76285 18.3455 8.69098 18.3623 8.62565 18.3945C8.56032 18.4267 8.50328 18.4735 8.45894 18.5313V18.5313Z" fill="#CFCDB0"/>
<path d="M8.45894 13.0313C7.97845 13.6487 7.63784 14.363 7.46069 15.125C7.46069 15.4897 7.60556 15.8394 7.86342 16.0973C8.12128 16.3551 8.47102 16.5 8.83569 16.5C9.20037 16.5 9.5501 16.3551 9.80797 16.0973C10.0658 15.8394 10.2107 15.4897 10.2107 15.125C10.0335 14.363 9.69294 13.6487 9.21244 13.0313C9.16811 12.9735 9.11107 12.9267 9.04574 12.8945C8.98041 12.8623 8.90854 12.8455 8.83569 12.8455C8.76285 12.8455 8.69098 12.8623 8.62565 12.8945C8.56032 12.9267 8.50328 12.9735 8.45894 13.0313V13.0313Z" fill="#CFCDB0"/>
<path d="M4.04893 18.2078C3.97668 18.19 3.90112 18.1906 3.8292 18.2097C3.75728 18.2288 3.6913 18.2656 3.63735 18.3168C3.03173 18.8117 2.54124 19.4327 2.20002 20.1364C2.15932 20.3127 2.15383 20.4953 2.18385 20.6738C2.21387 20.8522 2.27882 21.023 2.37496 21.1763C2.47111 21.3295 2.59656 21.4623 2.74413 21.567C2.89171 21.6718 3.05849 21.7463 3.23493 21.7864C3.336 21.8094 3.4393 21.821 3.54293 21.8213C3.85415 21.8207 4.15598 21.7146 4.39908 21.5203C4.64219 21.326 4.81218 21.055 4.88127 20.7515C4.87795 19.9692 4.70468 19.197 4.37343 18.4883C4.34632 18.4186 4.30258 18.3566 4.24602 18.3077C4.18946 18.2588 4.1218 18.2245 4.04893 18.2078Z" fill="#CFCDB0"/>
<path d="M5.27083 12.8453C5.19854 12.8282 5.12315 12.8292 5.05135 12.8482C4.97955 12.8672 4.91356 12.9037 4.85924 12.9544C4.25306 13.4493 3.76222 14.0706 3.42099 14.7749C3.34045 15.1301 3.4042 15.5029 3.59823 15.8112C3.79227 16.1195 4.10074 16.3383 4.45591 16.4194C4.63222 16.46 4.81483 16.4655 4.99326 16.4355C5.1717 16.4055 5.34245 16.3406 5.49574 16.2444C5.64903 16.1483 5.78183 16.0228 5.88654 15.8752C5.99124 15.7277 6.06579 15.5609 6.10591 15.3844C6.10068 14.6017 5.9252 13.8294 5.59166 13.1212C5.56429 13.0528 5.52084 12.992 5.46499 12.944C5.40914 12.896 5.34254 12.8621 5.27083 12.8453Z" fill="#CFCDB0"/>
<path d="M14.0342 18.3168C13.9798 18.2663 13.9138 18.2299 13.842 18.2109C13.7703 18.1919 13.6949 18.1908 13.6226 18.2078C13.5505 18.2241 13.4834 18.2576 13.4271 18.3055C13.3707 18.3534 13.3268 18.4142 13.299 18.4828C12.9677 19.1914 12.7947 19.9637 12.7921 20.746C12.861 21.0495 13.0308 21.3206 13.2737 21.5151C13.5166 21.7096 13.8183 21.8159 14.1295 21.8167C14.2332 21.8165 14.3365 21.8048 14.4375 21.7818C14.614 21.7417 14.7808 21.6672 14.9283 21.5625C15.0759 21.4578 15.2014 21.325 15.2975 21.1717C15.3936 21.0184 15.4586 20.8476 15.4886 20.6692C15.5186 20.4908 15.5131 20.3082 15.4724 20.1318C15.1304 19.4297 14.6396 18.8103 14.0342 18.3168V18.3168Z" fill="#CFCDB0"/>
<path d="M13.2147 16.4194C13.5702 16.3385 13.8791 16.1197 14.0733 15.8111C14.2676 15.5026 14.3313 15.1295 14.2505 14.7739C13.909 14.0701 13.4182 13.4492 12.8123 12.9544C12.758 12.9037 12.692 12.8672 12.6202 12.8482C12.5484 12.8292 12.473 12.8282 12.4007 12.8453C12.3286 12.8616 12.2615 12.8951 12.2051 12.943C12.1488 12.9909 12.1049 13.0517 12.0771 13.1203C11.7456 13.8289 11.5726 14.6012 11.5702 15.3835C11.6513 15.7387 11.87 16.0472 12.1783 16.2412C12.4867 16.4352 12.8594 16.499 13.2147 16.4184V16.4194Z" fill="#CFCDB0"/>
</g>
<defs>
<clipPath id="clip0">
<rect width="22" height="22" fill="white"/>
</clipPath>
</defs>
</svg>
