<svg width="22" height="22" viewBox="0 0 22 22" fill="none" xmlns="http://www.w3.org/2000/svg">
<g clip-path="url(#clip0)">
<path d="M21.0201 20.1254C20.5266 20.0958 20.0471 19.95 19.6206 19.6999C19.1942 19.4498 18.8329 19.1025 18.5661 18.6862C18.476 18.561 18.3571 18.4594 18.2193 18.3899C18.0816 18.3205 17.9291 18.2852 17.7749 18.2872C17.6206 18.2892 17.4691 18.3283 17.3332 18.4013C17.1973 18.4743 17.0809 18.5789 16.9941 18.7064C16.7223 19.1327 16.3501 19.4858 15.9101 19.7348C15.4702 19.9838 14.9758 20.121 14.4705 20.1346C14.0164 20.1231 13.5734 19.9913 13.1869 19.7526C12.8004 19.5139 12.4842 19.1769 12.2705 18.7761C12.1947 18.6399 12.0868 18.5243 11.9561 18.4393C11.8255 18.3543 11.6761 18.3026 11.5208 18.2885C11.3656 18.2744 11.2093 18.2984 11.0655 18.3585C10.9217 18.4185 10.7947 18.5128 10.6956 18.6331C10.354 19.0689 9.92442 19.4279 9.4348 19.6866C8.94518 19.9453 8.40654 20.098 7.85398 20.1346C7.34882 20.1059 6.85726 19.9602 6.41815 19.7088C5.97905 19.4574 5.60445 19.1074 5.32398 18.6862C5.24131 18.5671 5.13256 18.4684 5.00599 18.3976C4.87943 18.3268 4.73839 18.2859 4.5936 18.2778C4.44881 18.2698 4.3041 18.2949 4.17048 18.3512C4.03685 18.4075 3.91783 18.4936 3.82248 18.6028C3.80964 18.6193 2.48598 20.2354 0.971644 20.1612C0.850287 20.1525 0.72842 20.1683 0.61329 20.2076C0.49816 20.247 0.392119 20.3091 0.301471 20.3902C0.210823 20.4714 0.13742 20.5699 0.0856257 20.68C0.0338319 20.7901 0.0047052 20.9095 -2.25342e-05 21.0311C-0.00827253 21.2034 0.0384775 22 1.07156 22C2.35123 21.9345 3.56486 21.4117 4.49164 20.5269C5.37669 21.4301 6.58223 21.9479 7.84665 21.9679C9.13836 21.9449 10.3784 21.4566 11.3391 20.5929C11.7352 21.0293 12.2187 21.3773 12.7582 21.6142C13.2978 21.8511 13.8812 21.9716 14.4705 21.9679C15.7152 21.9651 16.9084 21.4709 17.7906 20.5929C18.2217 21.0444 18.7438 21.3991 19.3224 21.6333C19.901 21.8675 20.5228 21.976 21.1466 21.9514C21.3897 21.9346 21.6162 21.822 21.7762 21.6382C21.9363 21.4544 22.0168 21.2146 22 20.9715C21.9832 20.7284 21.8705 20.5019 21.6868 20.3418C21.503 20.1818 21.2632 20.1013 21.0201 20.1181V20.1254Z" fill="#CFCDB0"/>
<path d="M4.32481 12.6344C4.56295 12.8031 4.83789 12.9124 5.12679 12.9534C5.41568 12.9943 5.71018 12.9658 5.98581 12.87L12.2741 10.7021C12.3026 10.6923 12.3326 10.6882 12.3626 10.69C12.3926 10.6919 12.422 10.6996 12.449 10.7128C12.476 10.726 12.5001 10.7444 12.5199 10.7669C12.5398 10.7895 12.555 10.8157 12.5647 10.8442L13.7738 14.3184C13.785 14.3507 13.7888 14.3851 13.785 14.4191C13.7812 14.453 13.7698 14.4857 13.7517 14.5147C13.7336 14.5437 13.7092 14.5683 13.6804 14.5867C13.6515 14.6051 13.6189 14.6167 13.585 14.6209C12.122 14.7988 10.729 15.3485 9.53881 16.2177C9.44117 16.2886 9.3585 16.3781 9.29553 16.4811C9.23257 16.5841 9.19056 16.6984 9.1719 16.8177C9.15325 16.9369 9.15833 17.0586 9.18684 17.1759C9.21536 17.2932 9.26675 17.4037 9.33806 17.501C9.48312 17.6958 9.69878 17.826 9.93873 17.8635C10.1787 17.901 10.4238 17.843 10.6214 17.7018C11.8087 16.8701 13.2173 16.4118 14.6666 16.3854H21.0833C21.3264 16.3854 21.5596 16.2889 21.7315 16.117C21.9034 15.9451 22 15.7119 22 15.4688C22 15.2257 21.9034 14.9925 21.7315 14.8206C21.5596 14.6487 21.3264 14.5521 21.0833 14.5521H15.9591C15.9116 14.5519 15.8653 14.537 15.8265 14.5095C15.7878 14.4819 15.7585 14.443 15.7428 14.3981L14.3 10.2474C14.29 10.2189 14.2858 10.1886 14.2875 10.1584C14.2892 10.1282 14.2969 10.0987 14.3101 10.0714C14.3371 10.0169 14.3845 9.97507 14.4421 9.95503L20.7111 7.78711C20.9825 7.68799 21.2269 7.52691 21.4251 7.31669C21.6232 7.10647 21.7695 6.85292 21.8524 6.57619C21.9353 6.29549 21.9492 5.99894 21.8931 5.71169C21.8369 5.42445 21.7123 5.155 21.5297 4.9262C20.3245 3.41624 18.7115 2.28367 16.882 1.66284C15.0525 1.04202 13.0833 0.958991 11.2081 1.42361L10.9001 0.598612C10.8579 0.485817 10.794 0.382426 10.7119 0.294341C10.6298 0.206255 10.5312 0.135202 10.4216 0.0852359C10.3121 0.0352702 10.1938 0.00737129 10.0734 0.00313198C9.9531 -0.00110733 9.83311 0.018396 9.72031 0.0605284C9.60752 0.102661 9.50413 0.166597 9.41604 0.248687C9.32796 0.330777 9.2569 0.429413 9.20694 0.538963C9.10603 0.760209 9.09714 1.01248 9.18223 1.24028L9.47831 2.03503C7.71888 2.82187 6.22382 4.09962 5.17248 5.71499C4.12115 7.33037 3.55819 9.21476 3.55115 11.1421C3.5549 11.4339 3.62681 11.7209 3.76114 11.98C3.89546 12.2391 4.08849 12.4632 4.32481 12.6344V12.6344ZM19.8779 5.80344C19.9022 5.83189 19.9192 5.86583 19.9274 5.90232C19.9357 5.93882 19.9349 5.97677 19.9251 6.01289C19.9154 6.04901 19.8969 6.0822 19.8715 6.1096C19.846 6.137 19.8142 6.15777 19.7789 6.17011L17.1884 7.06661C17.1402 7.0832 17.0879 7.08319 17.0397 7.06658C16.9915 7.04996 16.9503 7.01771 16.9226 6.97495C16.0351 5.63309 14.9707 4.41703 13.7582 3.35961C13.7224 3.32866 13.6971 3.28738 13.6857 3.24145C13.6743 3.19551 13.6774 3.14718 13.6946 3.10308C13.7118 3.05898 13.7422 3.02128 13.7816 2.99516C13.8211 2.96904 13.8677 2.95578 13.915 2.9572C15.0513 2.99542 16.1675 3.26797 17.1936 3.75775C18.2197 4.24752 19.1336 4.94397 19.8779 5.80344V5.80344ZM8.03273 5.14069C8.0684 5.10797 8.11351 5.08739 8.1616 5.08188C8.20968 5.07638 8.25828 5.08624 8.30042 5.11006C8.34255 5.13388 8.37607 5.17042 8.39615 5.21446C8.41624 5.2585 8.42187 5.30776 8.41223 5.3552C8.10819 6.88815 8.0123 8.45511 8.12715 10.0137C8.13076 10.0642 8.11762 10.1144 8.08978 10.1567C8.06194 10.1989 8.02095 10.2308 7.97315 10.2474L5.69706 11.0349C5.6616 11.0467 5.62378 11.0497 5.58688 11.0436C5.54998 11.0376 5.51512 11.0226 5.48531 11C5.45526 10.9777 5.43117 10.9482 5.41518 10.9143C5.3992 10.8804 5.3918 10.8431 5.39365 10.8057C5.49111 8.64304 6.43977 6.60666 8.03273 5.14069V5.14069Z" fill="#CFCDB0"/>
</g>
<defs>
<clipPath id="clip0">
<rect width="22" height="22" fill="white"/>
</clipPath>
</defs>
</svg>
