<svg width="16" height="16" viewBox="0 0 16 16" fill="none" xmlns="http://www.w3.org/2000/svg">
<g clip-path="url(#clip0)">
<path d="M13.0333 9.70667C13.0235 9.78797 12.9841 9.86281 12.9226 9.91691C12.8611 9.97102 12.7819 10.0006 12.7 10H11.3333C11.2449 10 11.1601 10.0351 11.0976 10.0976C11.0351 10.1601 11 10.2449 11 10.3333V15.6667C11 15.7551 11.0351 15.8399 11.0976 15.9024C11.1601 15.9649 11.2449 16 11.3333 16H15.3333C15.5101 16 15.6797 15.9298 15.8047 15.8047C15.9298 15.6797 16 15.5101 16 15.3333V0.666667C16 0.489856 15.9298 0.320286 15.8047 0.195262C15.6797 0.0702379 15.5101 0 15.3333 0L0.666667 0C0.489856 0 0.320286 0.0702379 0.195262 0.195262C0.0702379 0.320286 0 0.489856 0 0.666667L0 15.3333C0 15.5101 0.0702379 15.6797 0.195262 15.8047C0.320286 15.9298 0.489856 16 0.666667 16H8C8.08841 16 8.17319 15.9649 8.2357 15.9024C8.29821 15.8399 8.33333 15.7551 8.33333 15.6667V10.3333C8.33333 10.2449 8.29821 10.1601 8.2357 10.0976C8.17319 10.0351 8.08841 10 8 10H6.66667C6.57826 10 6.49348 9.96488 6.43096 9.90237C6.36845 9.83986 6.33333 9.75507 6.33333 9.66667V7.66667C6.33333 7.57826 6.36845 7.49348 6.43096 7.43096C6.49348 7.36845 6.57826 7.33333 6.66667 7.33333H8C8.08841 7.33333 8.17319 7.29821 8.2357 7.2357C8.29821 7.17319 8.33333 7.08841 8.33333 7V6.12667C8.33333 5.12061 8.73299 4.15576 9.44438 3.44438C10.1558 2.73299 11.1206 2.33333 12.1267 2.33333H13C13.0884 2.33333 13.1732 2.36845 13.2357 2.43096C13.2982 2.49348 13.3333 2.57826 13.3333 2.66667V4.66667C13.3333 4.75507 13.2982 4.83986 13.2357 4.90237C13.1732 4.96488 13.0884 5 13 5H12.1267C11.8279 5 11.5413 5.1187 11.33 5.32999C11.1187 5.54128 11 5.82786 11 6.12667V7C11 7.08841 11.0351 7.17319 11.0976 7.2357C11.1601 7.29821 11.2449 7.33333 11.3333 7.33333H12.9533C13.0007 7.33299 13.0476 7.34274 13.0909 7.36194C13.1341 7.38113 13.1729 7.40933 13.2044 7.44465C13.2359 7.47998 13.2596 7.52161 13.2738 7.56679C13.288 7.61197 13.2924 7.65966 13.2867 7.70667L13.0333 9.70667Z" fill="white"/>
</g>
<defs>
<clipPath id="clip0">
<rect width="16" height="16" fill="white"/>
</clipPath>
</defs>
</svg>
