<svg width="22" height="22" viewBox="0 0 22 22" fill="none" xmlns="http://www.w3.org/2000/svg">
<path d="M21.0833 16.3854H0.916667C0.673552 16.3854 0.440394 16.482 0.268485 16.6539C0.0965771 16.8258 0 17.059 0 17.3021C0 17.5452 0.0965771 17.7783 0.268485 17.9503C0.440394 18.1222 0.673552 18.2187 0.916667 18.2187H1.88925C2.04013 18.2187 2.18868 18.2559 2.32172 18.3271C2.45476 18.3983 2.56818 18.5011 2.65192 18.6267L3.058 19.2353C3.22537 19.4865 3.45216 19.6925 3.71825 19.835C3.98434 19.9774 4.2815 20.052 4.58333 20.0521H17.4167C17.7185 20.052 18.0157 19.9774 18.2817 19.835C18.5478 19.6925 18.7746 19.4865 18.942 19.2353L19.3481 18.6267C19.4318 18.5011 19.5452 18.3983 19.6783 18.3271C19.8113 18.2559 19.9599 18.2187 20.1107 18.2187H21.0833C21.3264 18.2187 21.5596 18.1222 21.7315 17.9503C21.9034 17.7783 22 17.5452 22 17.3021C22 17.059 21.9034 16.8258 21.7315 16.6539C21.5596 16.482 21.3264 16.3854 21.0833 16.3854Z" fill="#CFCDB0"/>
<path d="M2.74996 14.5521H19.25C19.3715 14.5521 19.4881 14.5038 19.574 14.4178C19.66 14.3319 19.7083 14.2153 19.7083 14.0937C19.7057 12.1393 19.047 10.2422 17.8375 8.70687C16.6281 7.1715 14.9382 6.08673 13.0386 5.6265C13.0059 5.61854 12.9753 5.60347 12.949 5.58237C12.9227 5.56127 12.9013 5.53465 12.8865 5.50439C12.8716 5.47413 12.8636 5.44098 12.8629 5.40727C12.8623 5.37356 12.8691 5.34013 12.8828 5.30933C13.0029 5.04533 13.0654 4.75878 13.0661 4.46875C13.0661 3.92174 12.8488 3.39714 12.462 3.01034C12.0752 2.62355 11.5506 2.40625 11.0036 2.40625C10.4566 2.40625 9.93201 2.62355 9.54522 3.01034C9.15842 3.39714 8.94113 3.92174 8.94113 4.46875C8.94186 4.75878 9.00436 5.04533 9.12446 5.30933C9.13817 5.34013 9.14495 5.37356 9.14432 5.40727C9.14368 5.44098 9.13564 5.47413 9.12078 5.50439C9.10591 5.53465 9.08458 5.56127 9.05828 5.58237C9.03199 5.60347 9.00138 5.61854 8.96863 5.6265C7.06773 6.08532 5.37611 7.16948 4.16526 8.70498C2.95442 10.2405 2.29457 12.1383 2.29163 14.0937C2.29163 14.2153 2.33991 14.3319 2.42587 14.4178C2.51182 14.5038 2.6284 14.5521 2.74996 14.5521ZM5.92529 9.12267C7.01658 8.00879 8.44311 7.28361 9.98613 7.05833C10.077 7.04206 10.1702 7.04426 10.2602 7.0648C10.3503 7.08534 10.4352 7.1238 10.51 7.17788C10.5849 7.23196 10.648 7.30056 10.6958 7.37959C10.7435 7.45861 10.7748 7.54645 10.7879 7.63784C10.8009 7.72924 10.7955 7.82233 10.7718 7.91156C10.7481 8.00079 10.7066 8.08434 10.6499 8.15721C10.5932 8.23008 10.5225 8.29079 10.4418 8.33571C10.3611 8.38063 10.2723 8.40884 10.1805 8.41867C8.93682 8.60124 7.78714 9.1859 6.90704 10.0833C6.84515 10.1526 6.76984 10.2087 6.68569 10.248C6.60153 10.2874 6.51026 10.3093 6.4174 10.3125C6.32453 10.3156 6.232 10.2998 6.14539 10.2662C6.05877 10.2326 5.97988 10.1817 5.91347 10.1167C5.84705 10.0517 5.79451 9.97398 5.75899 9.88811C5.72348 9.80225 5.70574 9.71008 5.70685 9.61717C5.70795 9.52426 5.72788 9.43254 5.76542 9.34755C5.80297 9.26255 5.85735 9.18605 5.92529 9.12267Z" fill="#CFCDB0"/>
</svg>
