<svg width="22" height="22" viewBox="0 0 22 22" fill="none" xmlns="http://www.w3.org/2000/svg">
<g clip-path="url(#clip0)">
<path d="M11 0C9.05571 0.0021836 7.19171 0.775502 5.81692 2.1503C4.44213 3.52509 3.66881 5.38908 3.66663 7.33333C3.66663 10.5508 8.24996 18.3563 10.219 21.5637C10.301 21.6971 10.4159 21.8072 10.5526 21.8836C10.6893 21.96 10.8433 22 11 22C11.1568 22.0007 11.3112 21.9609 11.448 21.8842C11.5849 21.8076 11.6996 21.6969 11.781 21.5628C13.75 18.3572 18.3333 10.5545 18.3333 7.33333C18.3311 5.38908 17.5578 3.52509 16.183 2.1503C14.8082 0.775502 12.9442 0.0021836 11 0V0ZM11 10.5417C10.3654 10.5417 9.74511 10.3535 9.2175 10.001C8.6899 9.64843 8.27868 9.14736 8.03585 8.56111C7.79301 7.97486 7.72948 7.32977 7.85327 6.70742C7.97707 6.08506 8.28263 5.51339 8.73132 5.0647C9.18002 4.61601 9.75169 4.31044 10.374 4.18665C10.9964 4.06285 11.6415 4.12639 12.2277 4.36922C12.814 4.61205 13.3151 5.02327 13.6676 5.55088C14.0201 6.07849 14.2083 6.69879 14.2083 7.33333C14.2083 8.18424 13.8703 9.00029 13.2686 9.60197C12.6669 10.2036 11.8509 10.5417 11 10.5417V10.5417Z" fill="#CFCDB0"/>
</g>
<defs>
<clipPath id="clip0">
<rect width="22" height="22" fill="white"/>
</clipPath>
</defs>
</svg>
