<svg width="226" height="48" viewBox="0 0 226 48" fill="none" xmlns="http://www.w3.org/2000/svg">
<path d="M85.454 16.536L83.456 8.39998H80.36L84.122 21H86.84L90.782 8.39998H87.542L85.526 16.536H85.454Z" fill="white"/>
<path d="M93.7556 8.39998L89.7596 21H92.8916L93.6116 18.534H96.7436L97.4636 21H100.596L96.5996 8.39998H93.7556ZM94.2056 15.96L95.1416 12.306H95.2136L96.1496 15.96H94.2056Z" fill="white"/>
<path d="M104.9 8.39998H101.912V21H104.9V15.762H105.458L108.122 21H111.38L107.87 14.304L111.2 8.39998H107.942L105.458 13.17H104.9V8.39998Z" fill="white"/>
<path d="M115.64 8.39998L111.644 21H114.776L115.496 18.534H118.628L119.348 21H122.48L118.484 8.39998H115.64ZM116.09 15.96L117.026 12.306H117.098L118.034 15.96H116.09Z" fill="white"/>
<path d="M133.661 8.39998H130.781V15.096H130.709L126.479 8.39998H123.797V21H126.677V14.088H126.749L131.033 21H133.661V8.39998Z" fill="white"/>
<path d="M135.191 8.39998V11.136H138.467V21H141.455V11.136H144.713V8.39998H135.191Z" fill="white"/>
<path d="M146.507 21H149.495V8.39998H146.507V21Z" fill="white"/>
<path d="M159.52 21V18.444H154.786V15.852H159.106V13.296H154.786V10.956H159.52V8.39998H151.798V21H159.52Z" fill="white"/>
<path d="M168.158 21H171.146V8.39998H168.158V13.26H164.63V8.39998H161.642V21H164.63V15.834H168.158V21Z" fill="white"/>
<path d="M178.063 21.144C181.177 21.144 182.761 19.524 182.761 16.734V8.39998H179.773V16.572C179.773 17.76 179.413 18.534 178.063 18.534C176.713 18.534 176.353 17.76 176.353 16.572V8.39998H173.365V16.734C173.365 19.524 174.949 21.144 178.063 21.144Z" fill="white"/>
<path d="M184.968 21H187.956V8.39998H184.968V21Z" fill="white"/>
<path d="M193.859 21.144C197.117 21.144 198.557 19.632 198.557 17.202C198.557 12.648 192.707 13.638 192.707 11.82C192.707 11.226 193.157 10.848 194.129 10.848C195.047 10.848 195.947 11.154 196.955 11.748L198.197 9.58798C197.225 8.93998 195.839 8.25598 194.003 8.25598C191.267 8.25598 189.791 9.56998 189.791 11.928C189.791 16.374 195.605 15.042 195.605 17.31C195.605 17.94 195.119 18.516 193.949 18.516C192.977 18.516 191.915 18.21 190.439 17.526L189.413 19.776C190.421 20.388 191.933 21.144 193.859 21.144Z" fill="white"/>
<path d="M205.449 8.39998H202.461V16.59C202.461 17.832 202.281 18.516 201.093 18.516C200.787 18.516 200.283 18.462 199.509 18.354L199.311 20.784C200.031 21.018 200.877 21.144 201.363 21.144C204.873 21.144 205.449 19.092 205.449 16.554V8.39998Z" fill="white"/>
<path d="M215.472 21V18.444H210.738V15.852H215.058V13.296H210.738V10.956H215.472V8.39998H207.75V21H215.472Z" fill="white"/>
<path d="M221.193 21.144C224.451 21.144 225.891 19.632 225.891 17.202C225.891 12.648 220.041 13.638 220.041 11.82C220.041 11.226 220.491 10.848 221.463 10.848C222.381 10.848 223.281 11.154 224.289 11.748L225.531 9.58798C224.559 8.93998 223.173 8.25598 221.337 8.25598C218.601 8.25598 217.125 9.56998 217.125 11.928C217.125 16.374 222.939 15.042 222.939 17.31C222.939 17.94 222.453 18.516 221.283 18.516C220.311 18.516 219.249 18.21 217.773 17.526L216.747 19.776C217.755 20.388 219.267 21.144 221.193 21.144Z" fill="white"/>
<path d="M85.76 29.804H89.162V28.4H80.81V29.804H84.23V41H85.76V29.804Z" fill="white"/>
<path d="M97.6344 31.64L99.7404 41H101.666L104.582 28.4H102.98L100.712 39.056H100.64L98.3544 28.4H96.8424L94.5564 39.056H94.4844L92.2164 28.4H90.6144L93.5304 41H95.4564L97.5624 31.64H97.6344Z" fill="white"/>
<path d="M108.447 29.804H113.343V28.4H106.917V41H113.343V39.596H108.447V35.276H112.947V33.872H108.447V29.804Z" fill="white"/>
<path d="M116.181 41H117.621V31.694H117.711L123.435 41H124.767V28.4H123.327V37.868H123.237L117.351 28.4H116.181V41Z" fill="white"/>
<path d="M132.237 29.804H135.639V28.4H127.287V29.804H130.707V41H132.237V29.804Z" fill="white"/>
<path d="M139.701 29.804H144.597V28.4H138.171V41H144.597V39.596H139.701V35.276H144.201V33.872H139.701V29.804Z" fill="white"/>
<path d="M48 48H0V18.3L24 0L48 18.3V48Z" fill="white"/>
<path opacity="0.5" d="M64 48H16V18.3L40 0L64 18.3V48Z" fill="white"/>
</svg>
