<svg width="22" height="22" viewBox="0 0 22 22" fill="none" xmlns="http://www.w3.org/2000/svg">
<g clip-path="url(#clip0)">
<path d="M20.625 10.7708H1.375C1.01033 10.7708 0.660591 10.9157 0.402728 11.1735C0.144866 11.4314 0 11.7811 0 12.1458L0 15.8125C0.000480892 16.1169 0.101998 16.4126 0.288631 16.6532C0.475264 16.8937 0.736458 17.0655 1.03125 17.1416C1.12946 17.167 1.21649 17.2242 1.2787 17.3043C1.3409 17.3845 1.37477 17.483 1.375 17.5844V18.5625C1.375 18.8056 1.47158 19.0388 1.64349 19.2107C1.81539 19.3826 2.04855 19.4791 2.29167 19.4791C2.53478 19.4791 2.76794 19.3826 2.93985 19.2107C3.11176 19.0388 3.20833 18.8056 3.20833 18.5625V17.6458C3.20833 17.5243 3.25662 17.4077 3.34258 17.3217C3.42853 17.2358 3.54511 17.1875 3.66667 17.1875H18.3333C18.4549 17.1875 18.5715 17.2358 18.6574 17.3217C18.7434 17.4077 18.7917 17.5243 18.7917 17.6458V18.5625C18.7917 18.8056 18.8882 19.0388 19.0602 19.2107C19.2321 19.3826 19.4652 19.4791 19.7083 19.4791C19.9514 19.4791 20.1846 19.3826 20.3565 19.2107C20.5284 19.0388 20.625 18.8056 20.625 18.5625V17.5871C20.6252 17.4857 20.6591 17.3872 20.7213 17.3071C20.7835 17.227 20.8705 17.1698 20.9688 17.1444C21.264 17.0682 21.5255 16.8959 21.7122 16.6548C21.8989 16.4137 22.0001 16.1174 22 15.8125V12.1458C22 11.7811 21.8551 11.4314 21.5973 11.1735C21.3394 10.9157 20.9897 10.7708 20.625 10.7708Z" fill="#CFCDB0"/>
<path d="M2.29163 9.39581C2.29163 9.51737 2.33991 9.63395 2.42587 9.7199C2.51182 9.80586 2.6284 9.85415 2.74996 9.85415H19.25C19.3715 9.85415 19.4881 9.80586 19.574 9.7199C19.66 9.63395 19.7083 9.51737 19.7083 9.39581V4.81248C19.7083 4.20469 19.4668 3.6218 19.0371 3.19203C18.6073 2.76226 18.0244 2.52081 17.4166 2.52081H4.58329C3.9755 2.52081 3.39261 2.76226 2.96284 3.19203C2.53307 3.6218 2.29163 4.20469 2.29163 4.81248V9.39581ZM5.95829 6.64581H7.79163C8.19404 6.64566 8.5894 6.75148 8.93795 6.95262C9.28649 7.15377 9.57592 7.44314 9.77713 7.79165C9.81735 7.86132 9.83853 7.94036 9.83853 8.02081C9.83853 8.10126 9.81735 8.1803 9.77713 8.24997C9.7369 8.31965 9.67905 8.37751 9.60937 8.41774C9.5397 8.45796 9.46066 8.47914 9.38021 8.47915H4.36971C4.28926 8.47914 4.21022 8.45796 4.14055 8.41774C4.07087 8.37751 4.01302 8.31965 3.97279 8.24997C3.93256 8.1803 3.91139 8.10126 3.91139 8.02081C3.91139 7.94036 3.93257 7.86132 3.97279 7.79165C4.174 7.44314 4.46343 7.15377 4.81197 6.95262C5.16051 6.75148 5.55588 6.64566 5.95829 6.64581V6.64581ZM14.2083 6.64581H16.0416C16.444 6.64566 16.8394 6.75148 17.1879 6.95262C17.5365 7.15377 17.8259 7.44314 18.0271 7.79165C18.0674 7.86132 18.0885 7.94036 18.0885 8.02081C18.0885 8.10126 18.0674 8.1803 18.0271 8.24997C17.9869 8.31965 17.929 8.37751 17.8594 8.41774C17.7897 8.45796 17.7107 8.47914 17.6302 8.47915H12.6197C12.5393 8.47914 12.4602 8.45796 12.3905 8.41774C12.3209 8.37751 12.263 8.31965 12.2228 8.24997C12.1826 8.1803 12.1614 8.10126 12.1614 8.02081C12.1614 7.94036 12.1826 7.86132 12.2228 7.79165C12.424 7.44314 12.7134 7.15377 13.062 6.95262C13.4105 6.75148 13.8059 6.64566 14.2083 6.64581V6.64581Z" fill="#CFCDB0"/>
</g>
<defs>
<clipPath id="clip0">
<rect width="22" height="22" fill="white"/>
</clipPath>
</defs>
</svg>
