<svg width="22" height="22" viewBox="0 0 22 22" fill="none" xmlns="http://www.w3.org/2000/svg">
<path d="M4.961 7.57718C5.40742 7.57718 5.84382 7.44483 6.21505 7.19687C6.58627 6.9489 6.87566 6.59645 7.04662 6.18406C7.21759 5.77168 7.26246 5.31786 7.17556 4.87997C7.08867 4.44209 6.87391 4.03979 6.55844 3.72393C6.24296 3.40807 5.84093 3.19282 5.40315 3.10539C4.96537 3.01797 4.5115 3.06229 4.0989 3.23275C3.6863 3.40321 3.3335 3.69217 3.08508 4.06309C2.83667 4.43401 2.70379 4.87025 2.70325 5.31668C2.70325 5.91572 2.94103 6.49027 3.36436 6.91412C3.78769 7.33797 4.36195 7.57645 4.961 7.57718V7.57718Z" fill="#CFCDB0"/>
<path d="M0.309779 13.9205C0.199152 14.0589 0.116874 14.2178 0.0676441 14.388C0.0184143 14.5583 0.00319628 14.7365 0.0228591 14.9126C0.0625699 15.2683 0.241947 15.5937 0.521529 15.8171C0.659964 15.9277 0.818834 16.01 0.989067 16.0592C1.1593 16.1084 1.33756 16.1237 1.51368 16.104C1.86935 16.0643 2.19469 15.8849 2.41811 15.6053L4.37795 13.156C4.40267 13.1253 4.4349 13.1015 4.47153 13.0868C4.50815 13.0722 4.54793 13.0673 4.58701 13.0726C4.62609 13.0778 4.66316 13.0931 4.69462 13.1168C4.72608 13.1406 4.75088 13.1721 4.76661 13.2083L5.78411 15.5595C5.85555 15.7232 5.97325 15.8624 6.12274 15.9601C6.27224 16.0579 6.44702 16.1098 6.62561 16.1095H7.19486C7.43336 16.1095 7.66209 16.2042 7.83073 16.3729C7.99937 16.5415 8.09411 16.7703 8.09411 17.0088V19.7083C8.09411 20.0662 8.23627 20.4094 8.48932 20.6625C8.74237 20.9155 9.08558 21.0577 9.44345 21.0577C9.80131 21.0577 10.1445 20.9155 10.3976 20.6625C10.6506 20.4094 10.7928 20.0662 10.7928 19.7083V17.655C10.7929 17.6042 10.8099 17.5549 10.8411 17.5148C10.8723 17.4747 10.9159 17.4461 10.9651 17.4335C11.0144 17.4209 11.0664 17.425 11.113 17.4452C11.1596 17.4654 11.1982 17.5005 11.2227 17.545L12.7563 20.3555C12.8722 20.5686 13.0435 20.7465 13.2521 20.8704C13.4607 20.9943 13.6989 21.0596 13.9415 21.0595C14.166 21.059 14.3867 21.002 14.5832 20.8936C14.7391 20.8087 14.8767 20.6939 14.9881 20.5558C15.0995 20.4176 15.1826 20.2589 15.2326 20.0886C15.2826 19.9183 15.2985 19.7398 15.2794 19.5633C15.2603 19.3869 15.2066 19.2159 15.1213 19.0602L12.8067 14.8161C12.5746 14.3905 12.2322 14.0353 11.8154 13.7879C11.3985 13.5405 10.9228 13.4099 10.438 13.4099H7.94561C7.90078 13.41 7.85692 13.3969 7.81944 13.3723C7.78197 13.3477 7.75253 13.3127 7.73478 13.2715L6.19845 9.7295C6.10593 9.51607 5.95984 9.33016 5.77435 9.18979C5.58885 9.04943 5.37024 8.95936 5.1397 8.92833C5.08131 8.92105 5.02253 8.91737 4.9637 8.91733C4.76082 8.91679 4.56043 8.96201 4.37744 9.04961C4.19446 9.13722 4.03358 9.26496 3.90678 9.42333L0.309779 13.9205Z" fill="#CFCDB0"/>
<path d="M6.29566 21.9175C6.41722 21.9175 6.5338 21.8692 6.61975 21.7833C6.7057 21.6973 6.75399 21.5807 6.75399 21.4592C6.75399 21.4592 6.76774 17.9584 6.76774 17.9089C6.76774 17.7874 6.71945 17.6708 6.6335 17.5848C6.54755 17.4989 6.43097 17.4506 6.30941 17.4506H0.463826C0.342269 17.4506 0.22569 17.4989 0.139736 17.5848C0.0537817 17.6708 0.00549316 17.7874 0.00549316 17.9089V21.4592C0.00549316 21.5807 0.0537817 21.6973 0.139736 21.7833C0.22569 21.8692 0.342269 21.9175 0.463826 21.9175H6.29566Z" fill="#CFCDB0"/>
<path d="M19.9659 2.60608C20.1089 2.79916 20.1782 3.03693 20.1614 3.27658C20.1446 3.51623 20.0428 3.742 19.8743 3.91324C19.3803 4.40593 19.0859 5.06376 19.0475 5.76035C19.009 6.45694 19.2294 7.14316 19.6662 7.68716L19.91 7.99241C20.0644 8.18455 20.1422 8.427 20.1284 8.67306C20.1147 8.91913 20.0105 9.15143 19.8358 9.32524C19.6639 9.49737 19.5674 9.73073 19.5676 9.97398C19.5677 10.0944 19.5915 10.2137 19.6377 10.3249C19.6838 10.4362 19.7515 10.5372 19.8367 10.6223C19.9219 10.7074 20.0231 10.7749 20.1344 10.8209C20.2457 10.8669 20.365 10.8906 20.4854 10.8905C20.7287 10.8903 20.9619 10.7935 21.1338 10.6214C21.627 10.1283 21.9209 9.4706 21.9593 8.77424C21.9977 8.07787 21.7779 7.39182 21.3419 6.84749L21.0962 6.54133C20.943 6.34877 20.8663 6.10639 20.8808 5.86074C20.8954 5.61508 21.0001 5.38345 21.175 5.21033C21.6542 4.72616 21.9442 4.08641 21.9924 3.40691C22.0407 2.72742 21.844 2.05311 21.4381 1.50608L20.6388 0.448244C20.4929 0.253752 20.2757 0.125172 20.0351 0.0907902C19.7944 0.0564085 19.5499 0.119042 19.3554 0.264911C19.1609 0.41078 19.0324 0.627936 18.998 0.868608C18.9636 1.10928 19.0262 1.35375 19.1721 1.54824L19.9659 2.60608Z" fill="#CFCDB0"/>
<path d="M15.7465 2.60608C15.8895 2.79916 15.9588 3.03693 15.942 3.27658C15.9252 3.51623 15.8233 3.742 15.6548 3.91324C15.161 4.40591 14.8665 5.06365 14.8279 5.76019C14.7893 6.45673 15.0094 7.14297 15.4459 7.68716L15.6906 7.99241C15.8447 8.18464 15.9224 8.42704 15.9087 8.67305C15.895 8.91906 15.7909 9.15133 15.6164 9.32524C15.4445 9.49737 15.348 9.73073 15.3482 9.97398C15.3483 10.0944 15.3721 10.2137 15.4182 10.3249C15.4644 10.4362 15.532 10.5372 15.6173 10.6223C15.7025 10.7074 15.8037 10.7749 15.915 10.8209C16.0263 10.8669 16.1456 10.8906 16.266 10.8905C16.5092 10.8903 16.7425 10.7935 16.9144 10.6214C17.4074 10.1282 17.7012 9.47042 17.7394 8.77406C17.7777 8.0777 17.5576 7.39171 17.1215 6.84749L16.8768 6.54133C16.7227 6.34937 16.6451 6.10717 16.659 5.86141C16.6729 5.61564 16.7772 5.38372 16.9519 5.21033C17.431 4.72604 17.7208 4.08623 17.7689 3.40674C17.817 2.72726 17.6202 2.05301 17.2141 1.50608L16.4203 0.448244C16.2744 0.253752 16.0572 0.125172 15.8166 0.0907902C15.5759 0.0564085 15.3314 0.119042 15.1369 0.264911C14.9424 0.41078 14.8139 0.627936 14.7795 0.868608C14.7451 1.10928 14.8077 1.35375 14.9536 1.54824L15.7465 2.60608Z" fill="#CFCDB0"/>
<path d="M11.528 2.60699C11.671 2.80007 11.7403 3.03785 11.7235 3.27749C11.7066 3.51714 11.6048 3.74291 11.4363 3.91416C10.9427 4.40664 10.6484 5.06413 10.61 5.76036C10.5716 6.45658 10.7918 7.14245 11.2283 7.68624L11.473 7.99332C11.6271 8.1854 11.7047 8.42765 11.691 8.67351C11.6773 8.91936 11.5732 9.15148 11.3988 9.32524C11.3112 9.4098 11.2414 9.51095 11.1933 9.62279C11.1453 9.73462 11.12 9.85491 11.1189 9.97662C11.1179 10.0983 11.1411 10.219 11.1872 10.3317C11.2333 10.4444 11.3013 10.5467 11.3874 10.6328C11.4735 10.7188 11.5758 10.7869 11.6885 10.833C11.8011 10.8791 11.9218 10.9023 12.0435 10.9012C12.1653 10.9002 12.2855 10.8749 12.3974 10.8268C12.5092 10.7788 12.6104 10.709 12.6949 10.6214C13.1889 10.129 13.4835 9.47148 13.5223 8.7751C13.561 8.07871 13.3411 7.39256 12.9048 6.84841L12.6592 6.54132C12.5055 6.3492 12.4281 6.10708 12.442 5.86144C12.4559 5.61579 12.56 5.38392 12.7343 5.21032C13.2134 4.72602 13.5032 4.08613 13.5511 3.40659C13.599 2.72705 13.402 2.05283 12.9956 1.50607L12.1999 0.44824C12.1277 0.351937 12.0372 0.270804 11.9336 0.209472C11.83 0.14814 11.7154 0.107811 11.5962 0.0907865C11.4771 0.0737624 11.3557 0.080377 11.2391 0.110253C11.1225 0.140128 11.0129 0.19268 10.9166 0.264907C10.8203 0.337134 10.7392 0.427622 10.6778 0.531204C10.6165 0.634787 10.5762 0.749435 10.5591 0.868604C10.5421 0.987773 10.5487 1.10913 10.5786 1.22574C10.6085 1.34235 10.661 1.45194 10.7333 1.54824L11.528 2.60699Z" fill="#CFCDB0"/>
</svg>
