<svg width="22" height="22" viewBox="0 0 22 22" fill="none" xmlns="http://www.w3.org/2000/svg">
<g clip-path="url(#clip0)">
<path d="M4.17999 8.96315C4.18916 8.99157 5.05999 11.7131 7.17383 11.7131H14.8252C16.9391 11.7131 17.8099 8.98698 17.8191 8.96315C17.9511 8.53179 18.1833 8.13778 18.4967 7.81327C18.81 7.48875 19.1957 7.24294 19.6222 7.0959C19.7343 7.05698 19.8269 6.9761 19.8806 6.87027C19.9343 6.76445 19.9448 6.64193 19.91 6.52848C19.8568 6.35523 19.8119 6.19848 19.7798 6.0839C19.6805 5.69853 19.5527 5.32106 19.3976 4.95457C19.12 4.39958 18.6933 3.93292 18.1653 3.60698C17.6373 3.28103 17.0288 3.1087 16.4083 3.10932H5.59166C4.97098 3.10853 4.36238 3.28078 3.83418 3.60674C3.30598 3.93269 2.87911 4.39944 2.60149 4.95457C2.44636 5.32106 2.3186 5.69853 2.21924 6.0839C2.18257 6.19665 2.13582 6.35157 2.08266 6.52207C2.04685 6.63623 2.0571 6.75987 2.11122 6.86658C2.16535 6.97329 2.25905 7.0546 2.37232 7.09315C2.80032 7.23919 3.18745 7.48493 3.50176 7.81007C3.81606 8.13522 4.04854 8.53045 4.17999 8.96315Z" fill="#CFCDB0"/>
<path d="M20.977 8.43336C20.6135 8.32402 20.2216 8.36326 19.887 8.54249C19.5524 8.72171 19.3026 9.02629 19.1922 9.38944C19.1446 9.54344 17.9896 13.1551 14.8262 13.1551H7.17382C4.00949 13.1551 2.8554 9.54344 2.80774 9.38944C2.69834 9.02477 2.44855 8.71849 2.11333 8.53799C1.77811 8.35748 1.38491 8.31754 1.02024 8.42694C0.655564 8.53634 0.349287 8.78613 0.168784 9.12135C-0.0117202 9.45657 -0.0516649 9.84977 0.0577369 10.2144C0.118237 10.4189 1.4089 14.5558 5.14065 15.7144C5.17384 15.7248 5.20426 15.7425 5.22961 15.7663C5.25497 15.7901 5.2746 15.8193 5.28704 15.8518C5.29948 15.8842 5.3044 15.9191 5.30143 15.9537C5.29846 15.9884 5.28768 16.0219 5.2699 16.0518L4.43665 17.4396C4.30598 17.6577 4.26729 17.9187 4.32909 18.1653C4.39089 18.4119 4.54812 18.6239 4.76619 18.7546C4.98427 18.8852 5.24532 18.9239 5.49192 18.8621C5.73853 18.8003 5.95048 18.6431 6.08115 18.425L7.39015 16.2434C7.43098 16.1756 7.48866 16.1195 7.55757 16.0807C7.62648 16.0418 7.70428 16.0214 7.7834 16.0215H14.2157C14.2948 16.0214 14.3726 16.0418 14.4415 16.0807C14.5104 16.1195 14.5681 16.1756 14.6089 16.2434L15.9188 18.425C15.9835 18.5327 16.0687 18.6266 16.1696 18.7013C16.2705 18.7761 16.3852 18.8302 16.5071 18.8606C16.6289 18.8911 16.7556 18.8972 16.8798 18.8787C17.004 18.8602 17.1233 18.8174 17.231 18.7527C17.3387 18.6881 17.4326 18.6029 17.5073 18.5019C17.5821 18.401 17.6362 18.2863 17.6666 18.1645C17.6971 18.0426 17.7032 17.916 17.6847 17.7918C17.6662 17.6676 17.6234 17.5482 17.5587 17.4405L16.7264 16.0527C16.7084 16.023 16.6974 15.9895 16.6942 15.9549C16.691 15.9203 16.6958 15.8854 16.7081 15.8529C16.7206 15.8204 16.7403 15.7912 16.7657 15.7674C16.7911 15.7436 16.8215 15.7258 16.8547 15.7154C20.5874 14.5558 21.8781 10.4189 21.9395 10.2154C22.0475 9.85142 22.0068 9.45951 21.8264 9.1255C21.646 8.79148 21.3406 8.54259 20.977 8.43336V8.43336Z" fill="#CFCDB0"/>
</g>
<defs>
<clipPath id="clip0">
<rect width="22" height="22" fill="white"/>
</clipPath>
</defs>
</svg>
